<mxfile host="app.diagrams.net" agent="Mozilla/5.0 (Windows NT 10.0; Win64; x64) AppleWebKit/537.36 (KHTML, like Gecko) Chrome/131.0.0.0 Safari/537.36" version="26.0.6">
  <diagram name="Page-1" id="JSB4H0LXl1eHzTMhnrPm">
    <mxGraphModel dx="1050" dy="557" grid="1" gridSize="10" guides="1" tooltips="1" connect="1" arrows="1" fold="1" page="1" pageScale="1" pageWidth="827" pageHeight="1169" math="0" shadow="0">
      <root>
        <mxCell id="0" />
        <mxCell id="1" parent="0" />
        <mxCell id="gK48TEX08kC7XVzJOOTk-5" style="edgeStyle=orthogonalEdgeStyle;rounded=0;orthogonalLoop=1;jettySize=auto;html=1;entryX=0.5;entryY=0;entryDx=0;entryDy=0;" edge="1" parent="1" source="gK48TEX08kC7XVzJOOTk-1" target="gK48TEX08kC7XVzJOOTk-2">
          <mxGeometry relative="1" as="geometry" />
        </mxCell>
        <mxCell id="gK48TEX08kC7XVzJOOTk-1" value="Start" style="rounded=1;whiteSpace=wrap;html=1;" vertex="1" parent="1">
          <mxGeometry x="330" y="30" width="120" height="40" as="geometry" />
        </mxCell>
        <mxCell id="gK48TEX08kC7XVzJOOTk-6" style="edgeStyle=orthogonalEdgeStyle;rounded=0;orthogonalLoop=1;jettySize=auto;html=1;entryX=0.5;entryY=0;entryDx=0;entryDy=0;" edge="1" parent="1" source="gK48TEX08kC7XVzJOOTk-2" target="gK48TEX08kC7XVzJOOTk-3">
          <mxGeometry relative="1" as="geometry" />
        </mxCell>
        <mxCell id="gK48TEX08kC7XVzJOOTk-2" value="Authentication&lt;div&gt;And Authorization&lt;/div&gt;" style="rhombus;whiteSpace=wrap;html=1;rounded=1;" vertex="1" parent="1">
          <mxGeometry x="320" y="130" width="140" height="80" as="geometry" />
        </mxCell>
        <mxCell id="gK48TEX08kC7XVzJOOTk-7" value="" style="edgeStyle=orthogonalEdgeStyle;rounded=0;orthogonalLoop=1;jettySize=auto;html=1;" edge="1" parent="1" source="gK48TEX08kC7XVzJOOTk-3" target="gK48TEX08kC7XVzJOOTk-4">
          <mxGeometry relative="1" as="geometry" />
        </mxCell>
        <mxCell id="gK48TEX08kC7XVzJOOTk-3" value="Make Purchase" style="rounded=0;whiteSpace=wrap;html=1;" vertex="1" parent="1">
          <mxGeometry x="330" y="270" width="120" height="60" as="geometry" />
        </mxCell>
        <mxCell id="gK48TEX08kC7XVzJOOTk-4" value="Show EVoucher details used or unused" style="whiteSpace=wrap;html=1;rounded=0;" vertex="1" parent="1">
          <mxGeometry x="330" y="410" width="120" height="60" as="geometry" />
        </mxCell>
      </root>
    </mxGraphModel>
  </diagram>
</mxfile>
